<?xml version="1.0" encoding="UTF-8" standalone="no"?>
<!-- Created with Inkscape (http://www.inkscape.org/) -->

<svg
   xmlns:dc="http://purl.org/dc/elements/1.1/"
   xmlns:cc="http://creativecommons.org/ns#"
   xmlns:rdf="http://www.w3.org/1999/02/22-rdf-syntax-ns#"
   xmlns:svg="http://www.w3.org/2000/svg"
   xmlns="http://www.w3.org/2000/svg"
   xmlns:sodipodi="http://sodipodi.sourceforge.net/DTD/sodipodi-0.dtd"
   xmlns:inkscape="http://www.inkscape.org/namespaces/inkscape"
   width="1881.496"
   height="1977.1653"
   id="svg2"
   version="1.1"
   inkscape:version="0.48.4 r9939"
   sodipodi:docname="cutting-surface.svg">
  <sodipodi:namedview
     id="base"
     pagecolor="#ffffff"
     bordercolor="#666666"
     borderopacity="1.0"
     inkscape:pageopacity="0.0"
     inkscape:pageshadow="2"
     inkscape:zoom="0.318638"
     inkscape:cx="940.74799"
     inkscape:cy="988.58264"
     inkscape:document-units="mm"
     inkscape:current-layer="layer1"
     showgrid="true"
     units="mm"
     inkscape:window-width="1600"
     inkscape:window-height="850"
     inkscape:window-x="0"
     inkscape:window-y="25"
     inkscape:window-maximized="1"
     objecttolerance="20">
    <inkscape:grid
       spacingy="10mm"
       spacingx="10mm"
       units="mm"
       snapvisiblegridlinesonly="true"
       enabled="true"
       visible="true"
       empspacing="5"
       id="grid2990"
       type="xygrid" />
  </sodipodi:namedview>
  <defs
     id="defs4" />
  <metadata
     id="metadata7">
    <rdf:RDF>
      <cc:Work
         rdf:about="">
        <dc:format>image/svg+xml</dc:format>
        <dc:type
           rdf:resource="http://purl.org/dc/dcmitype/StillImage" />
        <dc:title></dc:title>
      </cc:Work>
    </rdf:RDF>
  </metadata>
  <g
     transform="translate(0,924.80444)"
     id="layer1"
     inkscape:groupmode="layer"
     inkscape:label="Layer 1">
    <g
       id="g3125"
       style="fill:#000000;fill-opacity:0">
      <g
         transform="translate(213.625,838.60984)"
         inkscape:label="Gear65"
         id="g3110"
         style="fill:#000000;fill-opacity:0">
        <path
           inkscape:connector-curvature="0"
           d="m 200.42,-6.795 6.421,1.795 6.412,2.486 0,5.028 -6.412,2.486 -6.421,1.795 -0.28,5.785 6.218,2.407 6.142,3.093 -0.485,5.004 -6.622,1.855 -6.564,1.167 -0.837,5.732 5.956,2.995 5.815,3.672 -0.966,4.933 -6.77,1.208 -6.646,0.528 -1.386,5.624 5.639,3.557 5.433,4.215 -1.437,4.817 -6.855,0.549 -6.666,-0.116 -1.923,5.464 5.27,4.084 5.001,4.721 -1.896,4.656 -6.875,-0.116 -6.624,-0.759 -2.441,5.254 4.851,4.573 4.522,5.181 -2.336,4.451 -6.833,-0.778 -6.519,-1.395 -2.937,4.993 4.387,5.021 4.001,5.593 -2.755,4.205 -6.725,-1.435 -6.355,-2.017 -3.405,4.687 3.882,5.42 3.443,5.953 -3.148,3.92 -6.556,-2.077 -6.13,-2.621 -3.841,4.335 3.34,5.77 2.852,6.258 -3.511,3.597 -6.325,-2.7 -5.849,-3.2 -4.241,3.945 2.768,6.065 2.235,6.504 -3.843,3.241 -6.034,-3.297 -5.513,-3.75 -4.603,3.517 2.171,6.304 1.596,6.689 -4.137,2.856 -5.688,-3.865 -5.125,-4.265 -4.921,3.057 1.552,6.484 0.943,6.812 -4.393,2.443 -5.289,-4.396 -4.689,-4.739 -5.193,2.567 0.918,6.604 0.282,6.871 -4.609,2.007 -4.84,-4.885 -4.21,-5.17 -5.416,2.054 0.277,6.662 -0.383,6.866 -4.781,1.553 -4.345,-5.33 -3.692,-5.552 -5.589,1.522 -0.367,6.657 -1.044,6.797 -4.909,1.085 -3.811,-5.724 -3.138,-5.882 -5.71,0.975 -1.008,6.59 -1.695,6.665 -4.99,0.606 -3.241,-6.065 -2.556,-6.158 -5.777,0.419 -1.64,6.463 -2.33,6.47 -5.026,0.121 -2.64,-6.35 -1.95,-6.375 -5.791,-0.14 -2.255,6.274 -2.944,6.215 -5.014,-0.364 -2.015,-6.575 -1.325,-6.535 -5.751,-0.698 -2.85,6.027 -3.53,5.902 -4.955,-0.846 -1.371,-6.739 -0.689,-6.632 -5.656,-1.25 -3.419,5.724 -4.083,5.534 -4.85,-1.321 -0.715,-6.84 -0.045,-6.667 -5.509,-1.79 -3.955,5.368 -4.598,5.113 -4.701,-1.782 -0.05,-6.877 0.598,-6.64 -5.311,-2.314 -4.454,4.961 -5.071,4.646 -4.506,-2.228 0.613,-6.85 1.237,-6.551 -5.063,-2.815 -4.913,4.507 -5.495,4.135 -4.27,-2.653 1.271,-6.758 1.863,-6.402 -4.767,-3.29 -5.325,4.012 -5.868,3.585 -3.994,-3.052 1.917,-6.604 2.473,-6.192 -4.428,-3.735 -5.687,3.479 -6.187,3.002 -3.681,-3.423 2.546,-6.389 3.058,-5.924 -4.046,-4.145 -5.996,2.914 -6.448,2.391 -3.334,-3.763 3.151,-6.112 3.616,-5.602 -3.627,-4.516 -6.25,2.322 -6.649,1.757 -2.955,-4.067 3.726,-5.78 4.14,-5.226 -3.174,-4.845 -6.445,1.708 -6.787,1.107 -2.549,-4.333 4.267,-5.393 4.624,-4.803 -2.692,-5.129 -6.579,1.078 -6.862,0.447 -2.119,-4.559 4.767,-4.956 5.067,-4.334 -2.184,-5.365 -6.653,0.438 -6.874,-0.217 -1.668,-4.742 5.223,-4.473 5.461,-3.824 -1.656,-5.551 -6.664,-0.206 -6.821,-0.88 -1.203,-4.881 5.631,-3.948 5.805,-3.28 -1.113,-5.684 -6.613,-0.849 -6.704,-1.533 -0.726,-4.975 5.985,-3.386 6.094,-2.704 -0.559,-5.765 -6.5,-1.483 -6.524,-2.173 -0.243,-5.022 6.284,-2.792 6.327,-2.104 0,-5.792 -6.327,-2.104 -6.284,-2.792 0.243,-5.022 6.524,-2.173 6.5,-1.483 0.559,-5.765 -6.094,-2.704 -5.985,-3.386 0.726,-4.975 6.704,-1.533 6.613,-0.849 1.113,-5.684 -5.805,-3.28 -5.631,-3.948 1.203,-4.881 6.821,-0.88 6.664,-0.206 1.656,-5.551 -5.461,-3.824 -5.223,-4.473 1.668,-4.742 6.874,-0.217 6.653,0.438 2.184,-5.365 -5.067,-4.334 -4.767,-4.956 2.119,-4.559 6.862,0.447 6.579,1.078 2.692,-5.129 -4.624,-4.803 -4.267,-5.393 2.549,-4.333 6.787,1.107 6.445,1.708 3.174,-4.845 -4.14,-5.226 -3.726,-5.78 2.955,-4.067 6.649,1.757 6.25,2.322 3.627,-4.516 -3.616,-5.602 -3.151,-6.112 3.334,-3.763 6.448,2.391 5.996,2.914 4.046,-4.145 -3.058,-5.924 -2.546,-6.389 3.681,-3.423 6.187,3.002 5.687,3.479 4.428,-3.735 -2.473,-6.192 -1.917,-6.604 3.994,-3.052 5.868,3.585 5.325,4.012 4.767,-3.29 -1.863,-6.402 -1.271,-6.758 4.27,-2.653 5.495,4.135 4.913,4.507 5.063,-2.815 -1.237,-6.551 -0.613,-6.85 4.506,-2.228 5.071,4.646 4.454,4.961 5.311,-2.314 -0.598,-6.64 0.05,-6.877 4.701,-1.782 4.598,5.113 3.955,5.368 5.509,-1.79 0.045,-6.667 0.715,-6.84 4.85,-1.321 4.083,5.534 3.419,5.724 5.656,-1.25 0.689,-6.632 1.371,-6.739 4.955,-0.846 3.53,5.902 2.85,6.027 5.751,-0.698 1.325,-6.535 2.015,-6.575 5.014,-0.364 2.944,6.215 2.255,6.274 5.791,-0.14 1.95,-6.375 2.64,-6.35 5.026,0.121 2.33,6.47 1.64,6.463 5.777,0.419 2.556,-6.158 3.241,-6.065 4.99,0.606 1.695,6.665 1.008,6.59 5.71,0.975 3.138,-5.882 3.811,-5.724 4.909,1.085 1.044,6.797 0.367,6.657 5.589,1.522 3.692,-5.552 4.345,-5.33 4.781,1.553 0.383,6.866 -0.277,6.662 5.416,2.054 4.21,-5.17 4.84,-4.885 4.609,2.007 -0.282,6.871 -0.918,6.604 5.193,2.567 4.689,-4.739 5.289,-4.396 4.393,2.443 -0.943,6.812 -1.552,6.484 4.921,3.057 5.125,-4.265 5.688,-3.865 4.137,2.856 -1.596,6.689 -2.171,6.304 4.603,3.517 5.513,-3.75 6.034,-3.297 3.843,3.241 -2.235,6.504 -2.768,6.065 4.241,3.945 5.849,-3.2 6.325,-2.7 3.511,3.597 -2.852,6.258 -3.34,5.77 3.841,4.335 6.13,-2.621 6.556,-2.077 3.148,3.92 -3.443,5.953 -3.882,5.42 3.405,4.687 6.355,-2.017 6.725,-1.435 2.755,4.205 -4.001,5.593 -4.387,5.021 2.937,4.993 6.519,-1.395 6.833,-0.778 2.336,4.451 -4.522,5.181 -4.851,4.573 2.441,5.254 6.624,-0.759 6.875,-0.116 1.896,4.656 -5.001,4.721 -5.27,4.084 1.923,5.464 6.666,-0.116 6.855,0.549 1.437,4.817 -5.433,4.215 -5.639,3.557 1.386,5.624 6.646,0.528 6.77,1.208 0.966,4.933 -5.815,3.672 -5.956,2.995 0.837,5.732 6.564,1.167 6.622,1.855 0.485,5.004 -6.142,3.093 -6.218,2.407 z"
           style="fill:#000000;stroke:#000000;fill-opacity:0"
           id="path3112" />
      </g>
      <rect
         y="771.69727"
         x="146.65926"
         height="134.00433"
         width="134.00433"
         id="rect3123"
         style="fill:#000000;stroke:#000000;stroke-width:0.99566935999999995;stroke-miterlimit:4;stroke-opacity:1;stroke-dasharray:none;fill-opacity:0" />
    </g>
    <g
       style="fill:#000000;fill-opacity:0"
       id="g3146"
       transform="translate(428.74016,0)">
      <g
         style="fill:#000000;fill-opacity:0"
         id="g3148"
         inkscape:label="Gear65"
         transform="translate(213.625,838.60984)">
        <path
           id="path3150"
           style="fill:#000000;fill-opacity:0;stroke:#000000"
           d="m 200.42,-6.795 6.421,1.795 6.412,2.486 0,5.028 -6.412,2.486 -6.421,1.795 -0.28,5.785 6.218,2.407 6.142,3.093 -0.485,5.004 -6.622,1.855 -6.564,1.167 -0.837,5.732 5.956,2.995 5.815,3.672 -0.966,4.933 -6.77,1.208 -6.646,0.528 -1.386,5.624 5.639,3.557 5.433,4.215 -1.437,4.817 -6.855,0.549 -6.666,-0.116 -1.923,5.464 5.27,4.084 5.001,4.721 -1.896,4.656 -6.875,-0.116 -6.624,-0.759 -2.441,5.254 4.851,4.573 4.522,5.181 -2.336,4.451 -6.833,-0.778 -6.519,-1.395 -2.937,4.993 4.387,5.021 4.001,5.593 -2.755,4.205 -6.725,-1.435 -6.355,-2.017 -3.405,4.687 3.882,5.42 3.443,5.953 -3.148,3.92 -6.556,-2.077 -6.13,-2.621 -3.841,4.335 3.34,5.77 2.852,6.258 -3.511,3.597 -6.325,-2.7 -5.849,-3.2 -4.241,3.945 2.768,6.065 2.235,6.504 -3.843,3.241 -6.034,-3.297 -5.513,-3.75 -4.603,3.517 2.171,6.304 1.596,6.689 -4.137,2.856 -5.688,-3.865 -5.125,-4.265 -4.921,3.057 1.552,6.484 0.943,6.812 -4.393,2.443 -5.289,-4.396 -4.689,-4.739 -5.193,2.567 0.918,6.604 0.282,6.871 -4.609,2.007 -4.84,-4.885 -4.21,-5.17 -5.416,2.054 0.277,6.662 -0.383,6.866 -4.781,1.553 -4.345,-5.33 -3.692,-5.552 -5.589,1.522 -0.367,6.657 -1.044,6.797 -4.909,1.085 -3.811,-5.724 -3.138,-5.882 -5.71,0.975 -1.008,6.59 -1.695,6.665 -4.99,0.606 -3.241,-6.065 -2.556,-6.158 -5.777,0.419 -1.64,6.463 -2.33,6.47 -5.026,0.121 -2.64,-6.35 -1.95,-6.375 -5.791,-0.14 -2.255,6.274 -2.944,6.215 -5.014,-0.364 -2.015,-6.575 -1.325,-6.535 -5.751,-0.698 -2.85,6.027 -3.53,5.902 -4.955,-0.846 -1.371,-6.739 -0.689,-6.632 -5.656,-1.25 -3.419,5.724 -4.083,5.534 -4.85,-1.321 -0.715,-6.84 -0.045,-6.667 -5.509,-1.79 -3.955,5.368 -4.598,5.113 -4.701,-1.782 -0.05,-6.877 0.598,-6.64 -5.311,-2.314 -4.454,4.961 -5.071,4.646 -4.506,-2.228 0.613,-6.85 1.237,-6.551 -5.063,-2.815 -4.913,4.507 -5.495,4.135 -4.27,-2.653 1.271,-6.758 1.863,-6.402 -4.767,-3.29 -5.325,4.012 -5.868,3.585 -3.994,-3.052 1.917,-6.604 2.473,-6.192 -4.428,-3.735 -5.687,3.479 -6.187,3.002 -3.681,-3.423 2.546,-6.389 3.058,-5.924 -4.046,-4.145 -5.996,2.914 -6.448,2.391 -3.334,-3.763 3.151,-6.112 3.616,-5.602 -3.627,-4.516 -6.25,2.322 -6.649,1.757 -2.955,-4.067 3.726,-5.78 4.14,-5.226 -3.174,-4.845 -6.445,1.708 -6.787,1.107 -2.549,-4.333 4.267,-5.393 4.624,-4.803 -2.692,-5.129 -6.579,1.078 -6.862,0.447 -2.119,-4.559 4.767,-4.956 5.067,-4.334 -2.184,-5.365 -6.653,0.438 -6.874,-0.217 -1.668,-4.742 5.223,-4.473 5.461,-3.824 -1.656,-5.551 -6.664,-0.206 -6.821,-0.88 -1.203,-4.881 5.631,-3.948 5.805,-3.28 -1.113,-5.684 -6.613,-0.849 -6.704,-1.533 -0.726,-4.975 5.985,-3.386 6.094,-2.704 -0.559,-5.765 -6.5,-1.483 -6.524,-2.173 -0.243,-5.022 6.284,-2.792 6.327,-2.104 0,-5.792 -6.327,-2.104 -6.284,-2.792 0.243,-5.022 6.524,-2.173 6.5,-1.483 0.559,-5.765 -6.094,-2.704 -5.985,-3.386 0.726,-4.975 6.704,-1.533 6.613,-0.849 1.113,-5.684 -5.805,-3.28 -5.631,-3.948 1.203,-4.881 6.821,-0.88 6.664,-0.206 1.656,-5.551 -5.461,-3.824 -5.223,-4.473 1.668,-4.742 6.874,-0.217 6.653,0.438 2.184,-5.365 -5.067,-4.334 -4.767,-4.956 2.119,-4.559 6.862,0.447 6.579,1.078 2.692,-5.129 -4.624,-4.803 -4.267,-5.393 2.549,-4.333 6.787,1.107 6.445,1.708 3.174,-4.845 -4.14,-5.226 -3.726,-5.78 2.955,-4.067 6.649,1.757 6.25,2.322 3.627,-4.516 -3.616,-5.602 -3.151,-6.112 3.334,-3.763 6.448,2.391 5.996,2.914 4.046,-4.145 -3.058,-5.924 -2.546,-6.389 3.681,-3.423 6.187,3.002 5.687,3.479 4.428,-3.735 -2.473,-6.192 -1.917,-6.604 3.994,-3.052 5.868,3.585 5.325,4.012 4.767,-3.29 -1.863,-6.402 -1.271,-6.758 4.27,-2.653 5.495,4.135 4.913,4.507 5.063,-2.815 -1.237,-6.551 -0.613,-6.85 4.506,-2.228 5.071,4.646 4.454,4.961 5.311,-2.314 -0.598,-6.64 0.05,-6.877 4.701,-1.782 4.598,5.113 3.955,5.368 5.509,-1.79 0.045,-6.667 0.715,-6.84 4.85,-1.321 4.083,5.534 3.419,5.724 5.656,-1.25 0.689,-6.632 1.371,-6.739 4.955,-0.846 3.53,5.902 2.85,6.027 5.751,-0.698 1.325,-6.535 2.015,-6.575 5.014,-0.364 2.944,6.215 2.255,6.274 5.791,-0.14 1.95,-6.375 2.64,-6.35 5.026,0.121 2.33,6.47 1.64,6.463 5.777,0.419 2.556,-6.158 3.241,-6.065 4.99,0.606 1.695,6.665 1.008,6.59 5.71,0.975 3.138,-5.882 3.811,-5.724 4.909,1.085 1.044,6.797 0.367,6.657 5.589,1.522 3.692,-5.552 4.345,-5.33 4.781,1.553 0.383,6.866 -0.277,6.662 5.416,2.054 4.21,-5.17 4.84,-4.885 4.609,2.007 -0.282,6.871 -0.918,6.604 5.193,2.567 4.689,-4.739 5.289,-4.396 4.393,2.443 -0.943,6.812 -1.552,6.484 4.921,3.057 5.125,-4.265 5.688,-3.865 4.137,2.856 -1.596,6.689 -2.171,6.304 4.603,3.517 5.513,-3.75 6.034,-3.297 3.843,3.241 -2.235,6.504 -2.768,6.065 4.241,3.945 5.849,-3.2 6.325,-2.7 3.511,3.597 -2.852,6.258 -3.34,5.77 3.841,4.335 6.13,-2.621 6.556,-2.077 3.148,3.92 -3.443,5.953 -3.882,5.42 3.405,4.687 6.355,-2.017 6.725,-1.435 2.755,4.205 -4.001,5.593 -4.387,5.021 2.937,4.993 6.519,-1.395 6.833,-0.778 2.336,4.451 -4.522,5.181 -4.851,4.573 2.441,5.254 6.624,-0.759 6.875,-0.116 1.896,4.656 -5.001,4.721 -5.27,4.084 1.923,5.464 6.666,-0.116 6.855,0.549 1.437,4.817 -5.433,4.215 -5.639,3.557 1.386,5.624 6.646,0.528 6.77,1.208 0.966,4.933 -5.815,3.672 -5.956,2.995 0.837,5.732 6.564,1.167 6.622,1.855 0.485,5.004 -6.142,3.093 -6.218,2.407 z"
           inkscape:connector-curvature="0" />
      </g>
      <rect
         style="fill:#000000;fill-opacity:0;stroke:#000000;stroke-width:0.99566936;stroke-miterlimit:4;stroke-opacity:1;stroke-dasharray:none"
         id="rect3152"
         width="134.00433"
         height="134.00433"
         x="146.65926"
         y="771.69727" />
    </g>
  </g>
</svg>
